<svg xmlns="http://www.w3.org/2000/svg" width="269" height="345" viewBox="0 0 269 345">
  <g id="humaaans_sitting-4" data-name="humaaans/sitting-4" transform="translate(-18 -38)">
    <g id="A-Human_Sitting" data-name="A-Human/Sitting" transform="translate(340 24) rotate(180)">
      <g id="Head_Front_Curly" data-name="Head/Front/Curly" transform="translate(82)">
        <g id="Head" transform="translate(54 -31)">
          <path id="Path_68" data-name="Path 68" d="M8.262-34.49C3.654-29.081.536-22.453,1.057-15.025c1.5,21.4,31.292,16.693,37.087,5.892s5.106-38.2-2.383-40.13c-2.987-.77-9.349,1.116-15.825,5.019L24-73H0Z" fill="#b28b67" fill-rule="evenodd"/>
        </g>
        <path id="hair" d="M102.776-25.16a5.191,5.191,0,0,1-3.635,3.686,4.788,4.788,0,0,1-1.338.133c-.161-.006-.206-.053-.282.06a1.48,1.48,0,0,0-.08.386,7.282,7.282,0,0,1-.272.9A7.354,7.354,0,0,1,95.4-17.357a8.929,8.929,0,0,1-5.363,2.537,7.819,7.819,0,0,1-3.224-.44,12.767,12.767,0,0,1-1.565-.669c-.153-.077-.648-.452-.8-.427-.169.027-.51.447-.647.553A9.481,9.481,0,0,1,77.872-14c-2.392-.018-4.7-.138-6.69-1.6a13.38,13.38,0,0,1-1.207-1c-.2-.187-.4-.382-.583-.584q-.169-.183-.327-.375c-.179-.218-.15-.289-.4-.137a4.973,4.973,0,0,1-3.193.718,7.146,7.146,0,0,1-1.928-.545c-.209-.09-.694-.447-.917-.45s-.7.328-.927.412a7.6,7.6,0,0,1-3.852.357,9.948,9.948,0,0,1-3.777-1.485,5.078,5.078,0,0,1-1.4-1.273c-.165-.227-.313-.468-.5-.678-.109-.123-.326-.25-.384-.406a8.3,8.3,0,0,1-1.6.707,3.944,3.944,0,0,1-2.253-.086,8.958,8.958,0,0,1-3.552-2.524,10.086,10.086,0,0,1-1.315-1.766q-.268-.455-.492-.934a3.475,3.475,0,0,0-.216-.487c-.123-.179-.206-.183-.429-.261a6.93,6.93,0,0,1-2.951-1.976,6.8,6.8,0,0,1-1.528-3.24,1.65,1.65,0,0,0-.061-.4c-.056-.052-.284-.029-.37-.039a7.787,7.787,0,0,1-.887-.156,7.321,7.321,0,0,1-1.559-.561,8.148,8.148,0,0,1-3.994-4.769,9.676,9.676,0,0,1,.151-6.624,6.472,6.472,0,0,1,.492-.97c.118-.189.156-.19.079-.388-.085-.221-.241-.436-.342-.651a9.352,9.352,0,0,1-.706-2.215,10.388,10.388,0,0,1-.122-3.829,5.527,5.527,0,0,1,.591-1.68,4.819,4.819,0,0,1,.518-.752c.1-.121.21-.237.323-.348a2.155,2.155,0,0,0,.2-.189c.134-.172.162-.031.093-.284a11.335,11.335,0,0,0-.451-1.048c-.138-.355-.264-.715-.378-1.078a15.906,15.906,0,0,1-.55-2.247,7.056,7.056,0,0,1,.5-4.365,4.367,4.367,0,0,1,1.235-1.47,4.584,4.584,0,0,1,.811-.493c.147-.07.335-.1.4-.242s-.035-.457-.059-.628a10.466,10.466,0,0,1,.123-4.509,6.23,6.23,0,0,1,2.469-3.315,7.683,7.683,0,0,1,7.68-.218A8.063,8.063,0,0,1,45.353-73.9c1.315-1.771,4.022-1.714,5.944-1.21a8.538,8.538,0,0,1,5.424,4.482c1.514-1.843,4.691-1.245,5.741.754a4.784,4.784,0,0,1,.484,1.574c.039.287.014.576.044.861a4.449,4.449,0,0,0,.419,1.066,5.886,5.886,0,0,1,.447,2.125,10.789,10.789,0,0,1-.082,1.141,3.921,3.921,0,0,0,.116,1,4.585,4.585,0,0,0-1.941.243,3.833,3.833,0,0,0-1.5,1.055,8.756,8.756,0,0,0-1.888,3.529c-.853,2.8-.5,6.149,2.308,7.683,1.31.715,5.234.712,6.794.359,1.64-.371,3.5-3.991,3.591-4.331.057-.211.028-.471.222-.611.425-.308,1.126.227,1.44.491a5.678,5.678,0,0,1,1.261,1.678,20.755,20.755,0,0,1,1.73,4.243c.32,1.131.524,2.3.942,3.4a5.2,5.2,0,0,0,2.091,2.7,18.41,18.41,0,0,0,3.6,1.456,8.928,8.928,0,0,1,3.327,1.828,4.6,4.6,0,0,1,.571.636c.131.183.26.532.459.648.31.18.761-.288,1.029-.458a11.891,11.891,0,0,0,3.311-3.286,20.447,20.447,0,0,0,2.2-3.912,11.313,11.313,0,0,1,1.478-3.263c.343-.385,2.894-.618,3.72-.282a4.7,4.7,0,0,1,2.029,1.756,2.728,2.728,0,0,1,.23,1.788c-.071.361-.217.7-.3,1.052a3.279,3.279,0,0,1-.273.851,2.1,2.1,0,0,1-1.309,1.043,6.147,6.147,0,0,1,1.414,1.917,8.229,8.229,0,0,1,.732,2.5,3.033,3.033,0,0,1-.405,1.946,5.124,5.124,0,0,1-1.661,1.379,10.807,10.807,0,0,1,2.313,2.519A7.864,7.864,0,0,1,102.776-25.16Z" fill="#191847" fill-rule="evenodd"/>
      </g>
      <g id="Bottom_Sitting_Sweat-Pants" data-name="Bottom/Sitting/Sweat-Pants" transform="translate(0 -187)">
        <g id="Objects_Seat_Cube-2" data-name="Objects/Seat/Cube-2" transform="translate(10 -42)">
          <path id="Seat" d="M59,0H174a16,16,0,0,0,16-16v-92a16,16,0,0,0-16-16H59a16,16,0,0,0-16,16v92A16,16,0,0,0,59,0ZM75-28a4,4,0,0,1-4-4V-92a4,4,0,0,1,4-4h83a4,4,0,0,1,4,4v60a4,4,0,0,1-4,4Z" fill="#c5cfd6" fill-rule="evenodd"/>
        </g>
        <path id="Skin" d="M271.509-162.66c-12.813,28.358-22.079,53.052-25.8,66.08-6.368,22.307-11.213,41.937-12.438,49.267-2.92,17.481,22.462,18.5,25.817,9.811,5.078-13.149,13.943-56.351,24.594-121.606Zm-148.621,89c11.756,4.647,52.924,19.189,72.779,23.3,5.706,1.182,11.236,2.28,16.435,3.273,15.454,2.95,23.46-24.929,8.576-27.071C183.612-79.494,131.063-85,126.566-85.622,120.263-86.488,115.5-76.584,122.888-73.664Z" fill="#b28b67" fill-rule="evenodd"/>
        <path id="Leg-Back" d="M221.587-39.416,158-7.047V0h7.562q92.277-23.514,94.306-30.138.022-.071.04-.143L260-30.4c12.191-16.767,19.493-98.624,21.889-104.753l-23.362-3.485C249.591-105.5,221-82.418,221.759-42.729A13,13,0,0,0,221.587-39.416Z" fill="#2f5da8" fill-rule="evenodd"/>
        <path id="Leg-Front" d="M163.283-58.64c-5.818,1.165-11.176,2.2-15.76,3.008C117.909-50.438,109.274-34.586,114.38,0h54.562c8.913-2.56,55.232-21.985,79.265-32.316,15.906-6.838,10.892-31.488,1.884-37.9a.88.88,0,0,0-.5-.781C201.137-91.083,162.8-80.545,150-83.912l-5.923,18.684Z" fill="#2f5da8" fill-rule="evenodd"/>
        <g id="Accessories_Shoe_Flat-Sneaker" data-name="Accessories/Shoe/Flat-Sneaker" transform="matrix(0.438, -0.899, 0.899, 0.438, 148.565, -57.151)">
          <path id="shoe" d="M2.678-25.4A21.472,21.472,0,0,1,1-32.106,50.177,50.177,0,0,1,1.9-40H58.3q2.2,7.268-2.538,7.848t-7.87,1.047L21.68-19.419a1,1,0,0,1-1.321-.506l-.011-.026-1.685-4.088a17.984,17.984,0,0,0-7.127-2.046,16.139,16.139,0,0,0-6.152,1.8h0a2,2,0,0,1-2.652-.985Q2.7-25.335,2.678-25.4Z" fill="#e4e4e4" fill-rule="evenodd"/>
        </g>
        <g id="Accessories_Shoe_Flat-Sneaker-2" data-name="Accessories/Shoe/Flat-Sneaker" transform="translate(263 -132)">
          <path id="shoe-2" data-name="shoe" d="M2.678-25.4A21.472,21.472,0,0,1,1-32.106,50.177,50.177,0,0,1,1.9-40H58.3q2.2,7.268-2.538,7.848T47.9-31.106L21.68-19.419a1,1,0,0,1-1.321-.506l-.011-.026-1.685-4.088a17.984,17.984,0,0,0-7.127-2.046,16.139,16.139,0,0,0-6.152,1.8h0a2,2,0,0,1-2.652-.985Q2.7-25.335,2.678-25.4Z" fill="#e4e4e4" fill-rule="evenodd"/>
        </g>
      </g>
      <g id="Body_Jacket" data-name="Body/Jacket" transform="translate(22 -82)">
        <path id="Skin-2" data-name="Skin" d="M194.044-89.123l28.328-27.635a85.863,85.863,0,0,0,20.26-11.646c1.184-1.428,2.473-4.164-3.1-2.94s-11.484,2.262-12.531.45,2.038-4.587.1-6.958q-1.935-2.371-13.014,15.082L184.636-105.4ZM68.308-93.02l20.9-.082q-19.355-62.48-20.9-66.3c-2.314-5.735,2.583-14.468,4.677-19.162-6.82-3.052-6.093,8.25-14.7,4.248-7.853-3.653-13.826-10.273-22.9-4.675-1.115.688-2.338,3.28.616,5.3,7.358,5.045,17.961,13.875,19.393,16.781Q58.328-150.963,68.308-93.02Z" fill="#b28b67" fill-rule="evenodd"/>
        <path id="Coat-Back" d="M122.018-9.232,130.5-7q27.108-53.627,86.515-94.194l-24.957-36.37C151.338-97.685,124.67-55.2,122.018-9.232Z" transform="translate(6.945 14.5) rotate(-5)" fill="#425da5" fill-rule="evenodd"/>
        <path id="Shirt" d="M90-114h77Q140.241-48.938,140.241-3.461L117.014,0C98.76-29.358,93.6-65.5,90-114Z" fill="#dde3e9" fill-rule="evenodd"/>
        <path id="Coat-Front" d="M116.522-.016l.009.016h1.516q2.721-.094,8.29-.338l5.613-16.039q.891-29.333,10.4-118.229H91.876q.2-6.14.655-12.394H55Q63.421-52,116.5,0l.018-.016Z" fill="#425da5" fill-rule="evenodd"/>
        <path id="Shade" d="M95.21-82.233Q97.365-120.505,106-135H91.889A263.839,263.839,0,0,0,95.21-82.233Z" fill="rgba(0,0,0,0.1)" fill-rule="evenodd"/>
        <path id="Light" d="M103.111-104,128-92.429V-104Z" fill="rgba(255,255,255,0.2)" fill-rule="evenodd"/>
      </g>
    </g>
  </g>
</svg>
